<svg width="167" height="46" viewBox="0 0 167 46" fill="none" xmlns="http://www.w3.org/2000/svg">
<path d="M25.1016 36.8379V36.5018H27.0247C27.4296 36.5018 27.767 36.457 28.0369 36.3674C28.3293 36.2553 28.543 36.0537 28.6779 35.7624C28.8129 35.4487 28.8804 35.0117 28.8804 34.4516V15.0918C28.8804 14.554 28.8129 14.1507 28.6779 13.8818C28.5655 13.6129 28.3855 13.4336 28.1381 13.344C27.9132 13.232 27.6433 13.176 27.3284 13.176H25.1016V12.8398H34.6161L45.4464 30.351V15.0918C45.4464 14.5988 45.3789 14.2179 45.2439 13.949C45.1315 13.6801 44.9628 13.4897 44.7378 13.3776C44.5129 13.2432 44.243 13.176 43.9281 13.176H41.4314V12.8398H49.6975V13.176H47.3358C46.9984 13.176 46.706 13.2432 46.4586 13.3776C46.2336 13.5121 46.0649 13.7249 45.9525 14.0162C45.84 14.3075 45.7838 14.7108 45.7838 15.2262V36.8379H43.0171L29.2178 14.5204V34.4516C29.2178 35.0117 29.2627 35.4487 29.3527 35.7624C29.4652 36.0537 29.6339 36.2553 29.8588 36.3674C30.0837 36.457 30.3761 36.5018 30.736 36.5018H33.2327V36.8379H25.1016Z" fill="#465C50"/>
<path d="M50.6367 36.8379V36.5018H52.02C52.3349 36.5018 52.6048 36.4458 52.8297 36.3338C53.0547 36.1993 53.2234 35.9977 53.3358 35.7288C53.4708 35.4599 53.5383 35.1238 53.5383 34.7204V15.1254C53.5383 14.5428 53.4708 14.1171 53.3358 13.8482C53.2009 13.5793 53.0097 13.4 52.7623 13.3104C52.5373 13.2208 52.2787 13.176 51.9863 13.176H50.6367V12.8398H69.2945L69.5307 19.1587H69.1933L69.0921 18.0831C68.9796 16.8731 68.7322 15.9096 68.3498 15.1926C67.9675 14.4532 67.3939 13.9378 66.6291 13.6465C65.8869 13.3328 64.9084 13.176 63.6938 13.176H59.8475V24.1331H67.5738V24.4692H59.8475V36.5018H64.7397C65.9768 36.5018 66.9665 36.345 67.7088 36.0313C68.4735 35.7176 69.0471 35.2022 69.4295 34.4852C69.8119 33.7681 70.048 32.7934 70.138 31.561L70.2392 30.5191H70.5766L70.3405 36.8379H50.6367Z" fill="#465C50"/>
<path d="M71.5817 36.8379V36.5018H72.7963C73.2012 36.5018 73.5611 36.4458 73.876 36.3338C74.1909 36.1993 74.472 35.964 74.7194 35.6279C74.9894 35.2694 75.2255 34.7765 75.428 34.1491L81.8384 12.8398H86.6969L93.7147 34.3171C93.9171 34.8325 94.1308 35.2582 94.3557 35.5943C94.5807 35.908 94.8393 36.1433 95.1317 36.3002C95.4466 36.4346 95.784 36.5018 96.1439 36.5018H96.3126V36.8379H84.7738V36.5018H86.1908C86.6857 36.5018 87.0231 36.401 87.203 36.1993C87.3829 35.9977 87.4729 35.7288 87.4729 35.3927C87.4729 35.2358 87.4504 35.079 87.4054 34.9221C87.3829 34.7429 87.3492 34.5524 87.3042 34.3507C87.2592 34.1491 87.2142 33.9586 87.1693 33.7793L85.4823 28.0319H77.621L76.069 33.1744C75.979 33.4881 75.9003 33.7793 75.8328 34.0482C75.7654 34.3171 75.7091 34.5636 75.6642 34.7877C75.6192 34.9893 75.5967 35.191 75.5967 35.3927C75.5967 35.7736 75.6866 36.0537 75.8666 36.2329C76.069 36.4122 76.3952 36.5018 76.845 36.5018H79.1056V36.8379H71.5817ZM77.7222 27.6958H85.3811L82.9856 19.3603C82.8731 18.957 82.7382 18.4752 82.5807 17.9151C82.4233 17.3549 82.2658 16.7723 82.1084 16.1673C81.9509 15.5623 81.7935 14.9797 81.636 14.4195C81.546 14.8229 81.4448 15.2262 81.3324 15.6295C81.2199 16.0329 81.0962 16.4474 80.9612 16.8731C80.8488 17.2765 80.725 17.6798 80.5901 18.0831C80.4776 18.4865 80.3539 18.8898 80.219 19.2931L77.7222 27.6958Z" fill="#465C50"/>
<path d="M99.0985 36.8379V36.5018H100.111C100.561 36.5018 100.92 36.4458 101.19 36.3338C101.483 36.2217 101.696 36.0089 101.831 35.6952C101.989 35.3815 102.068 34.9333 102.068 34.3507V13.176H100.381C99.121 13.176 98.1088 13.3328 97.344 13.6465C96.5793 13.9378 96.017 14.442 95.6571 15.159C95.2972 15.876 95.0723 16.8507 94.9823 18.0831L94.8811 19.6628H94.5437L94.7798 12.8398H115.766L116.002 19.6628H115.664L115.53 18.0831C115.44 16.8507 115.215 15.876 114.855 15.159C114.495 14.442 113.933 13.9378 113.168 13.6465C112.403 13.3328 111.391 13.176 110.131 13.176H108.478V34.418C108.478 34.9781 108.557 35.4151 108.714 35.7288C108.872 36.0425 109.097 36.2553 109.389 36.3674C109.681 36.457 110.03 36.5018 110.435 36.5018H111.447V36.8379H99.0985Z" fill="#465C50"/>
<path d="M116.731 36.8379V36.5018H118.182C118.43 36.5018 118.666 36.4458 118.891 36.3338C119.116 36.2217 119.296 36.0313 119.431 35.7624C119.566 35.4935 119.633 35.135 119.633 34.6868V15.0582C119.633 14.5876 119.554 14.2179 119.397 13.949C119.262 13.6577 119.071 13.456 118.823 13.344C118.576 13.232 118.306 13.176 118.014 13.176H116.731V12.8398H128.911V13.176H127.562C127.179 13.176 126.876 13.232 126.651 13.344C126.448 13.456 126.291 13.6465 126.179 13.9154C126.066 14.1619 126.01 14.5092 126.01 14.9573V36.5018H129.755C131.262 36.5018 132.465 36.3114 133.365 35.9304C134.287 35.5495 134.973 34.9221 135.423 34.0482C135.873 33.1744 136.154 31.9868 136.267 30.4855L136.334 29.2083H136.671L136.402 36.8379H116.731Z" fill="#465C50"/>
<path d="M140.827 36.8379V36.5018H141.941C142.435 36.5018 142.84 36.4458 143.155 36.3338C143.47 36.1993 143.706 35.9752 143.864 35.6615C144.044 35.3254 144.134 34.8549 144.134 34.2499V28.5025L137.791 14.9573C137.611 14.5092 137.408 14.1619 137.183 13.9154C136.981 13.6465 136.756 13.456 136.509 13.344C136.284 13.232 136.025 13.176 135.733 13.176H135.631V12.8398H147.44V13.176H147.035C146.158 13.176 145.517 13.2768 145.112 13.4784C144.707 13.6801 144.505 14.0162 144.505 14.4868C144.505 14.7557 144.55 15.0469 144.64 15.3606C144.752 15.6744 144.91 16.0553 145.112 16.5034L148.385 23.7633C148.587 24.1219 148.745 24.4468 148.857 24.7381C148.992 25.0069 149.116 25.287 149.228 25.5783C149.363 25.8696 149.521 26.2057 149.701 26.5866C149.881 26.9676 150.105 27.4269 150.375 27.9647C150.488 27.651 150.612 27.3261 150.747 26.99C150.881 26.6315 151.028 26.2841 151.185 25.948L155.031 16.6379C155.256 16.1001 155.414 15.6631 155.504 15.327C155.616 14.9909 155.672 14.6996 155.672 14.4532C155.672 13.9826 155.504 13.6577 155.166 13.4784C154.829 13.2768 154.3 13.176 153.581 13.176H152.062V12.8398H158.979V13.176H158.608C158.225 13.176 157.877 13.2432 157.562 13.3776C157.247 13.4897 156.955 13.7025 156.685 14.0162C156.437 14.3299 156.19 14.7781 155.942 15.3606L150.544 28.3344V34.2835C150.544 34.8885 150.623 35.3478 150.78 35.6615C150.938 35.9752 151.151 36.1993 151.421 36.3338C151.691 36.4458 152.006 36.5018 152.366 36.5018H153.884V36.8379H140.827Z" fill="#465C50"/>
<path fill-rule="evenodd" clip-rule="evenodd" d="M24.6191 37.3182V36.0218H27.0243C27.3908 36.0218 27.6693 35.9815 27.8732 35.9156C28.0379 35.8501 28.1548 35.7417 28.2371 35.5673C28.3336 35.3392 28.3979 34.9786 28.3979 34.4517V15.0919C28.3979 14.5787 28.331 14.2652 28.2464 14.0967L28.2315 14.0671C28.1645 13.9069 28.0789 13.8338 27.973 13.7954L27.9469 13.786L27.9221 13.7736C27.7788 13.7023 27.5864 13.6563 27.3279 13.6563H24.6191V12.3599H34.8848L44.9639 28.6565V15.0919C44.9639 14.6314 44.8991 14.3366 44.8124 14.1639L44.7975 14.1343C44.7219 13.9535 44.6268 13.8595 44.5219 13.8073L44.5053 13.799L44.4894 13.7895C44.3532 13.7081 44.1728 13.6563 43.9277 13.6563H40.949V12.3599H69.7585L70.0305 19.639H68.754L68.6118 18.1281C68.5026 16.9529 68.2651 16.0582 67.9237 15.418L67.9209 15.4127C67.5916 14.776 67.1082 14.3434 66.4566 14.0952L66.4403 14.089C65.7799 13.8099 64.8729 13.6563 63.6934 13.6563H60.3291V23.6531H68.0554V24.9495H60.3291V36.0218H64.7393C65.9428 36.0218 66.8605 35.8682 67.5201 35.5894L67.5248 35.5874C68.1874 35.3157 68.6745 34.8768 69.0034 34.2601C69.3423 33.6246 69.5695 32.7236 69.6569 31.5264L69.6577 31.5149L69.8012 30.0391H71.0765L70.8044 37.3182H50.1543V36.0218H52.0196C52.268 36.0218 52.4554 35.9794 52.5968 35.9127C52.7164 35.8369 52.816 35.7223 52.8905 35.5443L52.9033 35.5137C52.9953 35.3303 53.0559 35.0737 53.0559 34.7206V15.1255C53.0559 14.5602 52.9871 14.2281 52.9043 14.0631C52.8158 13.8868 52.7116 13.8033 52.5971 13.7618L52.5827 13.7566C52.4252 13.6938 52.2293 13.6563 51.9858 13.6563H47.3353C47.0678 13.6563 46.8606 13.7083 46.6981 13.7944C46.5854 13.8642 46.4816 13.9822 46.4019 14.1888C46.32 14.4008 46.2653 14.7366 46.2653 15.2264V37.3182H42.7475L29.6993 16.2156V34.4517C29.6993 34.9795 29.7414 35.3585 29.8099 35.6097C29.8841 35.7926 29.9728 35.8823 30.0577 35.9295C30.2052 35.9841 30.4246 36.0218 30.7356 36.0218H33.7143V37.3182H24.6191ZM29.8397 36.3579C29.6241 36.2442 29.4616 36.0457 29.3523 35.7626C29.3234 35.6618 29.2991 35.5483 29.2795 35.422C29.2381 35.1554 29.2173 34.8319 29.2173 34.4517V14.5206L43.0167 36.8381H45.7833V15.2264C45.7833 15.1807 45.7838 15.1359 45.7847 15.0919C45.7907 14.7937 45.817 14.5361 45.8638 14.3191C45.8878 14.2075 45.9172 14.1066 45.952 14.0164C46.0645 13.7251 46.2332 13.5122 46.4581 13.3778C46.4964 13.357 46.5358 13.3378 46.5763 13.3202C46.7972 13.2241 47.0502 13.1761 47.3353 13.1761H49.6971V12.84H41.431V13.1761H43.9277C44.1938 13.1761 44.4278 13.2241 44.6297 13.3202C44.6667 13.3378 44.7026 13.357 44.7374 13.3778C44.9623 13.4898 45.131 13.6803 45.2435 13.9492C45.297 14.0557 45.3398 14.1797 45.3721 14.3214C45.4213 14.5374 45.4459 14.7942 45.4459 15.0919V30.3512L34.6156 12.84H25.1011V13.1761H27.3279C27.6195 13.1761 27.8724 13.2241 28.0869 13.3202C28.1041 13.3279 28.121 13.3359 28.1377 13.3442C28.3851 13.4338 28.565 13.6131 28.6775 13.882C28.6984 13.9236 28.7177 13.9684 28.7353 14.0165C28.7869 14.157 28.8247 14.325 28.8487 14.5206C28.857 14.5885 28.8637 14.6598 28.8687 14.7345C28.872 14.7831 28.8745 14.8332 28.8764 14.8846C28.8787 14.9514 28.8799 15.0205 28.8799 15.0919V34.4517C28.8799 34.8245 28.8501 35.1427 28.7903 35.4064C28.7602 35.5389 28.7226 35.6576 28.6775 35.7626C28.5463 36.0457 28.3407 36.2442 28.0608 36.3579C28.0527 36.3612 28.0446 36.3644 28.0365 36.3675C27.7665 36.4572 27.4291 36.502 27.0243 36.502H25.1011V36.8381H33.2323V36.502H30.7356C30.3757 36.502 30.0833 36.4572 29.8584 36.3675C29.8521 36.3644 29.8458 36.3612 29.8397 36.3579ZM52.8293 36.3339C52.8126 36.3422 52.7957 36.3502 52.7785 36.3579C52.5641 36.454 52.3111 36.502 52.0196 36.502H50.6363V36.8381H70.34L70.5762 30.5193H70.2388L70.1376 31.5612C70.1104 31.9341 70.0698 32.2834 70.0158 32.6091C69.8913 33.3599 69.6957 33.9853 69.4291 34.4853C69.0467 35.2024 68.4731 35.7177 67.7084 36.0314C67.3768 36.1716 66.9958 36.2804 66.5655 36.3579C66.0325 36.454 65.4238 36.502 64.7393 36.502H59.8471V24.4693H67.5734V24.1332H59.8471V13.1761H63.6934C64.3654 13.1761 64.9651 13.2241 65.4926 13.3202C65.9184 13.3977 66.2971 13.5065 66.6287 13.6467C67.3935 13.938 67.967 14.4533 68.3494 15.1928C68.6304 15.7196 68.8385 16.3796 68.9737 17.1726C69.0225 17.4589 69.0618 17.7624 69.0917 18.0833L69.1929 19.1588H69.5303L69.4887 18.0467L69.2941 12.84H50.6363V13.1761H51.9858C52.2782 13.1761 52.5369 13.2209 52.7618 13.3106C52.7704 13.3137 52.7789 13.3169 52.7873 13.3202C53.0224 13.4127 53.2051 13.5887 53.3354 13.8483C53.4704 14.1172 53.5378 14.543 53.5378 15.1255V34.7206C53.5378 35.1239 53.4704 35.4601 53.3354 35.7289C53.2229 35.9978 53.0542 36.1995 52.8293 36.3339ZM71.0993 37.3182V36.0218H72.7959C73.1499 36.0218 73.4486 35.9737 73.6989 35.8869C73.9143 35.7918 74.1268 35.6207 74.3303 35.3442L74.3334 35.34C74.5594 35.0399 74.7746 34.6027 74.9673 34.0066L81.4793 12.3599H87.0465L94.1682 34.1553C94.3593 34.6398 94.555 35.026 94.752 35.3216C94.9345 35.5746 95.1322 35.7514 95.3413 35.8675C95.5876 35.9694 95.8534 36.0218 96.1435 36.0218H96.7942V37.3182H84.2913V36.0218H86.1904C86.6527 36.0218 86.8059 35.9213 86.8423 35.8805C86.9259 35.7868 86.9905 35.6414 86.9905 35.3928C86.9905 35.2824 86.9747 35.1699 86.9416 35.0542L86.9313 35.0186L86.9267 34.9818C86.9064 34.8195 86.8754 34.644 86.8333 34.4551C86.7899 34.2605 86.7466 34.0771 86.7035 33.905L85.1206 28.5122H77.979L76.532 33.3064C76.5317 33.3075 76.5314 33.3085 76.5311 33.3096C76.4428 33.6178 76.3658 33.9028 76.3 34.1649C76.234 34.4278 76.1796 34.6668 76.1363 34.882L76.1343 34.892C76.0968 35.0603 76.0782 35.227 76.0782 35.3928C76.0782 35.6911 76.1455 35.8249 76.1975 35.8835C76.2762 35.9457 76.4595 36.0218 76.8446 36.0218H79.5871V37.3182H71.0993ZM75.8661 36.2331C75.6862 36.0538 75.5962 35.7738 75.5962 35.3928C75.5962 35.2601 75.606 35.1274 75.6255 34.9947C75.6356 34.9258 75.6483 34.8568 75.6637 34.7878C75.6965 34.6245 75.7353 34.4493 75.78 34.2621C75.7806 34.2597 75.7812 34.2574 75.7817 34.255C75.7979 34.1877 75.8147 34.1188 75.8324 34.0484C75.8999 33.7795 75.9786 33.4882 76.0686 33.1745L77.6206 28.0321H85.4819L87.1688 33.7795C87.2138 33.9588 87.2588 34.1492 87.3038 34.3509C87.3488 34.5526 87.3825 34.743 87.405 34.9223C87.45 35.0791 87.4725 35.236 87.4725 35.3928C87.4725 35.7289 87.3825 35.9978 87.2026 36.1995C87.1468 36.262 87.0759 36.3148 86.9899 36.3579C86.7984 36.454 86.5319 36.502 86.1904 36.502H84.7733V36.8381H96.3122V36.502H96.1435C95.8393 36.502 95.5512 36.454 95.2792 36.3579C95.2294 36.3403 95.1801 36.3211 95.1313 36.3003C94.8389 36.1435 94.5802 35.9082 94.3553 35.5945C94.1304 35.2584 93.9167 34.8327 93.7143 34.3173L86.6965 12.84H81.838L75.4275 34.1492C75.365 34.3429 75.2993 34.5238 75.2304 34.6919C75.2292 34.6949 75.228 34.6978 75.2267 34.7008C75.2045 34.7548 75.1819 34.8075 75.159 34.8589C75.0239 35.1615 74.8773 35.4179 74.719 35.6281C74.4716 35.9642 74.1904 36.1995 73.8755 36.3339C73.8522 36.3422 73.8286 36.3502 73.8047 36.3579C73.507 36.454 73.1707 36.502 72.7959 36.502H71.5813V36.8381H79.1051V36.502H76.8446C76.5153 36.502 76.2523 36.454 76.0556 36.3579C75.9836 36.3228 75.9204 36.2812 75.8661 36.2331ZM85.3806 27.696L82.9851 19.3605C82.8727 18.9572 82.7377 18.4754 82.5803 17.9152C82.4228 17.3551 82.2654 16.7725 82.1079 16.1675C82.0383 15.9 81.9687 15.6368 81.8991 15.3781C81.8481 15.1889 81.7972 15.002 81.7463 14.8174C81.7094 14.6836 81.6725 14.5511 81.6356 14.4197C81.5642 14.7396 81.4858 15.0594 81.4003 15.3793C81.378 15.4628 81.3552 15.5462 81.3319 15.6297C81.2195 16.033 81.0957 16.4476 80.9608 16.8733C80.8483 17.2766 80.7246 17.68 80.5897 18.0833C80.4772 18.4866 80.3535 18.89 80.2185 19.2933L77.7218 27.696H85.3806ZM78.3671 27.2158H84.7413L82.5207 19.489C82.4084 19.0861 82.2735 18.6047 82.1161 18.0447C81.9582 17.4829 81.8004 16.8989 81.6426 16.2929C81.573 16.5285 81.4997 16.7675 81.4229 17.01C81.3099 17.4147 81.1859 17.8192 81.0508 18.2236C80.9377 18.6283 80.8136 19.0329 80.6784 19.4373L78.3671 27.2158ZM98.6161 37.3182V36.0218H100.11C100.527 36.0218 100.816 35.9689 101.005 35.8907L101.017 35.8856C101.176 35.8247 101.299 35.7131 101.388 35.5062L101.399 35.4802C101.508 35.2634 101.585 34.9022 101.585 34.3509V13.6563H100.38C99.1539 13.6563 98.2114 13.81 97.5271 14.0907L97.5158 14.0953C96.8615 14.3445 96.3927 14.7664 96.0877 15.3739C95.7673 16.0124 95.5504 16.917 95.4627 18.1161C95.4627 18.1168 95.4628 18.1155 95.4627 18.1161L95.3328 20.1432H94.0443L94.3138 12.3599H116.231L116.249 12.884V12.3599H129.393V13.6563H127.561C127.227 13.6563 127.009 13.7053 126.876 13.7688C126.793 13.8173 126.702 13.911 126.623 14.1002L126.617 14.1143C126.546 14.2705 126.491 14.5386 126.491 14.9575V36.0218H129.754C131.228 36.0218 132.359 35.8345 133.176 35.4887L133.18 35.4871C133.998 35.1491 134.597 34.6005 134.994 33.8293C135.402 33.0356 135.675 31.9205 135.785 30.4552C135.785 30.4534 135.785 30.4517 135.785 30.4499L135.876 28.7283H137.17L136.866 37.3182H116.249V36.0218H118.182C118.353 36.0218 118.516 35.9837 118.675 35.9045C118.789 35.8476 118.901 35.7429 118.999 35.5478C119.088 35.3702 119.151 35.0942 119.151 34.687V15.0583C119.151 14.6326 119.078 14.3583 118.98 14.1911L118.968 14.1713L118.959 14.1504C118.863 13.9433 118.747 13.8372 118.623 13.7813C118.443 13.6997 118.242 13.6563 118.013 13.6563H116.276L116.5 20.1432H115.221L115.048 18.1181C114.961 16.918 114.744 16.0128 114.423 15.3739C114.118 14.7664 113.649 14.3444 112.995 14.0952L112.984 14.0908C112.299 13.8101 111.357 13.6563 110.131 13.6563H108.96V34.4181C108.96 34.9435 109.035 35.2954 109.145 35.5142C109.252 35.7286 109.387 35.8487 109.547 35.9137C109.779 35.9824 110.072 36.0218 110.434 36.0218H111.929V37.3182H98.6161ZM109.364 36.3579C109.084 36.2436 108.867 36.0339 108.714 35.7289C108.556 35.4152 108.478 34.9783 108.478 34.4181V13.1761H110.131C110.828 13.1761 111.449 13.2241 111.994 13.3202C112.435 13.3977 112.826 13.5065 113.167 13.6467C113.932 13.938 114.494 14.4421 114.854 15.1592C115.122 15.6927 115.315 16.3688 115.433 17.1877C115.474 17.4693 115.506 17.7679 115.529 18.0833L115.664 19.663H116.001L115.765 12.84H94.7794L94.5432 19.663H94.8806L94.9818 18.0833C95.0125 17.6637 95.0587 17.2741 95.1207 16.9142C95.2406 16.2171 95.4193 15.6321 95.6566 15.1592C96.0165 14.4421 96.5788 13.938 97.3436 13.6467C97.6852 13.5065 98.0762 13.3977 98.5166 13.3202C99.062 13.2241 99.6832 13.1761 100.38 13.1761H102.067V34.3509C102.067 34.9335 101.988 35.3816 101.831 35.6953C101.696 36.009 101.482 36.2219 101.19 36.3339C101.17 36.3422 101.149 36.3502 101.128 36.3579C100.866 36.454 100.527 36.502 100.11 36.502H99.098V36.8381H111.447V36.502H110.434C110.03 36.502 109.681 36.4572 109.389 36.3675C109.38 36.3644 109.372 36.3612 109.364 36.3579ZM136.093 31.9061C135.943 32.7571 135.72 33.4712 135.423 34.0484C134.973 34.9223 134.287 35.5497 133.365 35.9306C132.917 36.1203 132.393 36.2627 131.795 36.3579C131.191 36.454 130.511 36.502 129.754 36.502H126.009V14.9575C126.009 14.5094 126.066 14.162 126.178 13.9156C126.291 13.6467 126.448 13.4562 126.65 13.3442C126.667 13.3359 126.684 13.3279 126.702 13.3202C126.921 13.2241 127.207 13.1761 127.561 13.1761H128.911V12.84H116.731V13.1761H118.013C118.284 13.1761 118.535 13.2241 118.767 13.3202C118.786 13.3279 118.805 13.3359 118.823 13.3442C119.07 13.4562 119.262 13.6579 119.396 13.9492C119.554 14.2181 119.633 14.5878 119.633 15.0583V34.687C119.633 35.1352 119.565 35.4937 119.43 35.7626C119.295 36.0314 119.115 36.2219 118.89 36.3339C118.874 36.3422 118.857 36.3502 118.84 36.3579C118.63 36.454 118.411 36.502 118.182 36.502H116.731V36.8381H136.401L136.671 29.2085H136.334L136.266 30.4857C136.228 30.9953 136.17 31.4688 136.093 31.9061ZM140.345 37.3182V36.0218H141.94C142.395 36.0218 142.735 35.9707 142.978 35.8868C143.178 35.7981 143.326 35.6575 143.432 35.447L143.438 35.4357C143.565 35.1984 143.651 34.8179 143.651 34.2501V28.6091L137.342 15.1361C137.175 14.7194 136.999 14.4281 136.826 14.2385L136.811 14.2218L136.797 14.2037C136.632 13.9839 136.467 13.8529 136.309 13.7813L136.292 13.7739C136.144 13.7003 135.962 13.6563 135.732 13.6563H135.149V12.3599H147.922V13.6563H147.035C146.175 13.6563 145.628 13.7583 145.327 13.9081C145.194 13.9744 145.117 14.0505 145.069 14.129C145.021 14.2087 144.986 14.3212 144.986 14.4869C144.986 14.6991 145.021 14.9406 145.099 15.2142C145.205 15.509 145.355 15.8725 145.551 16.3066L148.815 23.5472C149.016 23.9043 149.178 24.237 149.298 24.5441C149.434 24.8164 149.559 25.0988 149.672 25.3913C149.805 25.678 149.96 26.0083 150.136 26.3824C150.192 26.5008 150.253 26.6271 150.318 26.7613C150.449 26.4163 150.591 26.0809 150.743 25.7553L154.585 16.4553C154.807 15.9261 154.956 15.5097 155.038 15.2035L155.045 15.1751C155.148 14.8684 155.19 14.631 155.19 14.4533C155.19 14.1106 155.08 13.9771 154.939 13.9023L154.918 13.8909C154.695 13.7576 154.274 13.6563 153.58 13.6563H151.58V12.3599H159.46V13.6563H158.607C158.283 13.6563 158 13.7131 157.751 13.8191L157.724 13.8308C157.507 13.908 157.283 14.0605 157.057 14.3211C156.849 14.5874 156.623 14.9892 156.387 15.546C156.386 15.5466 156.387 15.5453 156.387 15.546L151.026 28.4301V34.2837C151.026 34.8608 151.103 35.2319 151.211 35.447C151.326 35.6769 151.466 35.8156 151.622 35.8973C151.819 35.976 152.063 36.0218 152.366 36.0218H154.366V37.3182H140.345ZM151.421 36.3339C151.151 36.1995 150.937 35.9754 150.78 35.6617C150.622 35.348 150.544 34.8887 150.544 34.2837V28.3346L155.355 16.7724L155.942 15.3608C155.989 15.2498 156.036 15.1436 156.083 15.0424C156.284 14.6123 156.484 14.2703 156.684 14.0164C156.954 13.7027 157.247 13.4898 157.561 13.3778C157.61 13.357 157.66 13.3378 157.71 13.3202C157.985 13.2241 158.284 13.1761 158.607 13.1761H158.978V12.84H152.062V13.1761H153.58C154.077 13.1761 154.483 13.2241 154.797 13.3202C154.938 13.3633 155.061 13.4161 155.166 13.4786C155.503 13.6579 155.672 13.9828 155.672 14.4533C155.672 14.5859 155.656 14.7315 155.623 14.89C155.603 14.9865 155.578 15.0878 155.546 15.1938C155.545 15.1948 155.545 15.1958 155.545 15.1968C155.532 15.2395 155.518 15.283 155.503 15.3272C155.413 15.6633 155.256 16.1003 155.031 16.638L151.185 25.9482C151.027 26.2843 150.881 26.6316 150.746 26.9901C150.698 27.1107 150.651 27.2299 150.605 27.3476C150.524 27.558 150.447 27.7637 150.375 27.9649C150.338 27.8909 150.302 27.8185 150.266 27.7475C150.201 27.6174 150.139 27.4922 150.08 27.3721C149.937 27.0811 149.81 26.8193 149.7 26.5868C149.52 26.2059 149.363 25.8698 149.228 25.5785C149.115 25.2872 148.992 25.0071 148.857 24.7382C148.744 24.4469 148.587 24.122 148.384 23.7635L145.112 16.5036C144.909 16.0554 144.752 15.6745 144.639 15.3608C144.549 15.0471 144.504 14.7558 144.504 14.4869C144.504 14.0164 144.707 13.6803 145.112 13.4786C145.237 13.4161 145.385 13.3633 145.556 13.3202C145.937 13.2241 146.429 13.1761 147.035 13.1761H147.44V12.84H135.631V13.1761H135.732C136.003 13.1761 136.245 13.2241 136.457 13.3202C136.475 13.3279 136.491 13.3359 136.508 13.3442C136.756 13.4562 136.98 13.6467 137.183 13.9156C137.408 14.162 137.61 14.5094 137.79 14.9575L144.133 28.5026V34.2501C144.133 34.8551 144.043 35.3256 143.863 35.6617C143.706 35.9754 143.47 36.1995 143.155 36.3339C143.131 36.3422 143.108 36.3502 143.083 36.3579C142.779 36.454 142.398 36.502 141.94 36.502H140.827V36.8381H153.884V36.502H152.366C152.032 36.502 151.738 36.454 151.482 36.3579C151.461 36.3502 151.441 36.3422 151.421 36.3339Z" fill="#2F3E35"/>
<path d="M17.5961 12.187C16.8867 11.9694 13.2582 10.7727 12.9907 10.6639C12.8628 10.6155 12.7697 10.3738 12.7232 9.96279C12.3394 6.8924 11.7347 3.73734 11.4672 3.38678C11.2695 3.12084 10.5949 3.20546 10.4089 3.50766C10.2228 3.80987 9.3622 6.8682 8.85049 9.09242L8.51324 10.543C1.90752 12.7189 1.54697 12.6705 4.53583 13.6255L7.17581 14.4717C8.67605 14.9552 8.71093 14.9672 8.79234 15.3541C8.90864 15.9101 9.66457 18.6179 9.95532 19.9113C10.5717 22.6916 11.8277 20.9751 12.9326 15.8014L13.1884 14.6167C13.328 14.5926 14.2118 14.5079 18.0264 13.6497C18.8986 13.4442 18.6428 12.5013 17.5961 12.187ZM15.9447 12.7793C15.8516 12.8639 13.3047 13.5046 12.8046 13.5046C12.1999 13.5046 12.0603 13.8068 11.3741 16.6475C10.9206 18.5212 10.8857 18.5574 10.6298 17.4695C10.3158 16.1035 9.67619 14.5079 9.59478 14.1332C9.525 13.7947 8.87375 13.553 6.35008 12.9244C5.08244 12.6101 4.88473 12.5013 5.36155 12.3562C5.95467 12.1749 8.80396 11.2078 9.12959 11.2078C9.44359 11.2078 9.71109 10.9661 9.80412 10.6034L10.7113 6.92865C10.8741 6.28798 10.8741 6.28796 11.3276 8.79021C11.851 11.6068 11.7928 11.4859 12.6302 11.6672C13.6768 11.8968 16.0493 12.6826 15.9447 12.7793Z" fill="#E76B39"/>
<path d="M15.9447 12.7793C15.8516 12.8639 13.3047 13.5046 12.8046 13.5046C12.1999 13.5046 12.0603 13.8068 11.3741 16.6475C10.9206 18.5212 10.8857 18.5574 10.6298 17.4695C10.3158 16.1035 9.67619 14.5079 9.59478 14.1332C9.525 13.7947 8.87375 13.553 6.35008 12.9244C5.08244 12.6101 4.88473 12.5013 5.36155 12.3562C5.95467 12.1749 8.80396 11.2078 9.12959 11.2078C9.44359 11.2078 9.71109 10.9661 9.80412 10.6034L10.7113 6.92865C10.8741 6.28798 10.8741 6.28796 11.3276 8.79021C11.851 11.6068 11.7928 11.4859 12.6302 11.6672C13.6768 11.8968 16.0493 12.6826 15.9447 12.7793Z" fill="#E76B39"/>
</svg>
